<svg width="152" height="109" viewBox="0 0 152 109" fill="none" xmlns="http://www.w3.org/2000/svg">
<path d="M144 28.362C144 23.9915 144 21.8062 143.137 20.7943C142.389 19.9163 141.266 19.4504 140.118 19.541C138.794 19.6454 137.251 21.1906 134.167 24.281L108 50.5L134.167 76.719C137.251 79.8094 138.794 81.3546 140.118 81.459C141.266 81.5496 142.389 81.0837 143.137 80.2057C144 79.1938 144 77.0085 144 72.638V28.362Z" stroke="#FDCE64" stroke-opacity="0.35" stroke-width="15" stroke-linecap="round" stroke-linejoin="round"/>
<path d="M0 34.6286C0 22.5074 0 16.4469 2.35426 11.8172C4.42512 7.74484 7.7295 4.4339 11.7938 2.35893C16.4143 0 22.4629 0 34.56 0H73.44C85.5371 0 91.5857 0 96.2062 2.35893C100.27 4.4339 103.575 7.74484 105.646 11.8172C108 16.4469 108 22.5074 108 34.6286V66.3714C108 78.4926 108 84.5531 105.646 89.1828C103.575 93.2552 100.27 96.5661 96.2062 98.6411C91.5857 101 85.5371 101 73.44 101H34.56C22.4629 101 16.4143 101 11.7938 98.6411C7.7295 96.5661 4.42512 93.2552 2.35426 89.1828C0 84.5531 0 78.4926 0 66.3714V34.6286Z" stroke="#FDCE64" stroke-opacity="0.35" stroke-width="15" stroke-linecap="round" stroke-linejoin="round"/>
</svg>
