<svg width="133" height="116" viewBox="0 0 133 116" fill="none" xmlns="http://www.w3.org/2000/svg">
<path d="M74 24L67.3068 10.6135C65.3804 6.76082 64.4172 4.83438 62.9802 3.42698C61.7095 2.18238 60.1779 1.23584 58.4964 0.655857C56.595 0 54.4412 0 50.1337 0H27.2C20.4794 0 17.1191 0 14.5521 1.30792C12.2942 2.4584 10.4584 4.29417 9.30792 6.55211C8 9.11906 8 12.4794 8 19.2V24M8 24H99.2C109.281 24 114.321 24 118.172 25.9619C121.559 27.6876 124.312 30.4413 126.038 33.8282C128 37.6786 128 42.7191 128 52.8V79.2C128 89.2809 128 94.3214 126.038 98.1718C124.312 101.559 121.559 104.312 118.172 106.038C114.321 108 109.281 108 99.2 108H36.8C26.7191 108 21.6786 108 17.8282 106.038C14.4413 104.312 11.6876 101.559 9.96188 98.1718C8 94.3214 8 89.2809 8 79.2V24Z" stroke="#FC6464" stroke-opacity="0.35" stroke-width="15" stroke-linecap="round" stroke-linejoin="round"/>
</svg>
