<svg width="114" height="166" viewBox="0 0 114 166" fill="none" xmlns="http://www.w3.org/2000/svg">
<path d="M66 158H-11.2386C-16.287 158 -18.8113 158 -19.9801 157.002C-20.9944 156.135 -21.5326 154.836 -21.4279 153.506C-21.3073 151.974 -19.5224 150.189 -15.9526 146.619L54.9052 75.7614C58.2053 72.4613 59.8555 70.8112 61.7582 70.193C63.4319 69.6492 65.2348 69.6492 66.9085 70.193C68.8112 70.8112 70.4613 72.4613 73.7614 75.7614L106 108V118M66 158C80.0013 158 87.002 158 92.3498 155.275C97.0538 152.878 100.878 149.054 103.275 144.35C106 139.002 106 132.001 106 118M66 158H-4C-18.0013 158 -25.002 158 -30.3498 155.275C-35.0538 152.878 -38.8783 149.054 -41.2752 144.35C-44 139.002 -44 132.001 -44 118V48C-44 33.9987 -44 26.998 -41.2752 21.6502C-38.8783 16.9462 -35.0538 13.1217 -30.3498 10.7248C-25.002 8 -18.0013 8 -4 8H66C80.0013 8 87.002 8 92.3498 10.7248C97.0538 13.1217 100.878 16.9462 103.275 21.6502C106 26.998 106 33.9987 106 48V118M18.5 53.8333C18.5 63.0381 11.0381 70.5 1.83333 70.5C-7.37141 70.5 -14.8333 63.0381 -14.8333 53.8333C-14.8333 44.6286 -7.37141 37.1667 1.83333 37.1667C11.0381 37.1667 18.5 44.6286 18.5 53.8333Z" stroke="#8EEA6D" stroke-opacity="0.35" stroke-width="15" stroke-linecap="round" stroke-linejoin="round"/>
</svg>
