<svg width="147" height="196" viewBox="0 0 147 196" fill="none" xmlns="http://www.w3.org/2000/svg">
<path d="M98 8C120.512 32.6452 133.305 64.6283 134 98C133.305 131.372 120.512 163.355 98 188M98 8C75.4885 32.6452 62.6952 64.6283 62 98C62.6952 131.372 75.4885 163.355 98 188M98 8C48.2944 8 8 48.2944 8 98C8 147.706 48.2944 188 98 188M98 8C147.706 8 188 48.2944 188 98C188 147.706 147.706 188 98 188M12.5002 71H183.5M12.5 125H183.5" stroke="#818BFF" stroke-opacity="0.35" stroke-width="15" stroke-linecap="round" stroke-linejoin="round"/>
</svg>
