<svg width="131" height="30" viewBox="0 0 131 30" fill="none" xmlns="http://www.w3.org/2000/svg">
<path d="M0 10.9038C0 10.1652 0.136629 9.50437 0.409887 8.92128C0.683146 8.31876 1.06376 7.81341 1.55172 7.40525C2.03968 6.97765 2.58619 6.64723 3.19127 6.41399C3.81586 6.16132 4.45996 6.00583 5.12359 5.94752V8.86297C4.61611 8.96016 4.21598 9.16424 3.92321 9.47522C3.64995 9.7862 3.51332 10.2235 3.51332 10.7872C3.51332 11.2536 3.65971 11.6327 3.95249 11.9242C4.26478 12.1963 4.65515 12.4393 5.12359 12.6531V15.7726C4.79178 15.6754 4.45021 15.5685 4.09887 15.4519C3.76706 15.3158 3.43525 15.1701 3.10343 15.0146C2.06896 14.4704 1.28822 13.897 0.761219 13.2945C0.25374 12.6919 0 11.895 0 10.9038ZM9.77874 9.6793C9.25174 9.40719 8.68571 9.20311 8.08064 9.06706C7.49508 8.931 6.90953 8.84354 6.32398 8.80466V5.91837C7.20231 5.95724 8.01232 6.08358 8.75402 6.29738C9.49572 6.49174 10.2179 6.81244 10.9206 7.25948L9.77874 9.6793ZM1.55172 18.9796C1.94209 19.2517 2.40077 19.5044 2.92777 19.7376C3.47428 19.9708 4.15743 20.0875 4.9772 20.0875H5.12359V22.7988C4.63563 22.7988 4.18671 22.7794 3.77682 22.7405C3.36693 22.7211 2.95704 22.6628 2.54716 22.5656C2.15679 22.449 1.75666 22.2935 1.34677 22.0991C0.936885 21.9048 0.50748 21.6521 0.0585553 21.3411L1.55172 18.9796ZM6.32398 13.1195C6.90953 13.3139 7.50484 13.5277 8.10991 13.7609C8.71499 13.9942 9.2615 14.2857 9.74946 14.6356C10.2569 14.9854 10.6668 15.4227 10.9791 15.9475C11.3109 16.4529 11.4768 17.0943 11.4768 17.8717C11.4768 18.6297 11.3402 19.2906 11.067 19.8542C10.7937 20.4179 10.4229 20.9038 9.95441 21.312C9.50548 21.7201 8.96873 22.0408 8.34414 22.2741C7.71955 22.5073 7.04616 22.6628 6.32398 22.7405V19.9708C6.9876 19.8542 7.49508 19.6501 7.84642 19.3586C8.21727 19.0476 8.40269 18.6395 8.40269 18.1341C8.40269 17.6288 8.19775 17.24 7.78786 16.9679C7.39749 16.6764 6.90953 16.4237 6.32398 16.2099V13.1195Z" fill="#0F0F0F"/>
<path d="M14.5744 0H18.117V22.6531H14.5744V0ZM26.871 8.01749C27.2029 8.34791 27.4566 8.73664 27.6323 9.18367C27.8274 9.61127 27.9641 10.068 28.0422 10.5539C28.1397 11.0204 28.1983 11.4966 28.2178 11.9825C28.2373 12.4684 28.2471 12.9446 28.2471 13.4111V22.6531H24.6752V13.7026C24.6752 13.0418 24.6459 12.4101 24.5874 11.8076C24.5288 11.2051 24.3922 10.6706 24.1775 10.2041C23.9628 9.73761 23.67 9.37804 23.2992 9.12536C22.9283 8.85326 22.4111 8.7172 21.7475 8.7172C21.4742 8.7172 21.1033 8.76579 20.6349 8.86297C20.186 8.94072 19.7468 9.07677 19.3174 9.27114V7.02624C19.8444 6.75413 20.4104 6.52089 21.0155 6.32653C21.6401 6.13217 22.2452 6.03499 22.8307 6.03499C23.7091 6.03499 24.4508 6.21963 25.0558 6.58892C25.6609 6.93878 26.266 7.41497 26.871 8.01749Z" fill="#0F0F0F"/>
<path d="M38.6641 6.12245C39.7376 6.18076 40.7135 6.44315 41.5919 6.90962C42.4702 7.35666 43.2021 7.95918 43.7877 8.7172C44.3928 9.45578 44.8612 10.3207 45.193 11.312C45.5248 12.3032 45.6907 13.3625 45.6907 14.4898C45.6907 15.6171 45.5151 16.6764 45.1637 17.6676C44.8319 18.6395 44.3635 19.4947 43.7584 20.2332C43.1533 20.9524 42.4116 21.5355 41.5333 21.9825C40.655 22.4295 39.6986 22.6919 38.6641 22.7697V19.9708C39.64 19.757 40.4305 19.1448 41.0356 18.1341C41.6602 17.1234 41.9725 15.9086 41.9725 14.4898C41.9725 13.7707 41.8944 13.1001 41.7382 12.4781C41.6016 11.8367 41.3869 11.2634 41.0941 10.758C40.8014 10.2527 40.45 9.83479 40.0401 9.50437C39.6303 9.17395 39.1716 8.96016 38.6641 8.86297V6.12245ZM30.4956 14.4315C30.4956 13.3042 30.6615 12.2546 30.9933 11.2828C31.3252 10.311 31.7936 9.4655 32.3987 8.74636C33.0233 8.00777 33.765 7.41497 34.6238 6.96793C35.4826 6.52089 36.4292 6.24879 37.4637 6.1516V8.86297C36.4878 9.07677 35.707 9.68902 35.1215 10.6997C34.5359 11.7104 34.2432 12.9252 34.2432 14.344C34.2432 15.0632 34.3115 15.7434 34.4481 16.3848C34.6043 17.0262 34.819 17.5996 35.0922 18.105C35.3655 18.6103 35.6973 19.0282 36.0877 19.3586C36.4975 19.689 36.9562 19.8931 37.4637 19.9708V22.7697C36.3902 22.6919 35.424 22.4295 34.5652 21.9825C33.7064 21.516 32.9745 20.9135 32.3694 20.1749C31.7643 19.4363 31.2959 18.5714 30.9641 17.5802C30.6518 16.5889 30.4956 15.5394 30.4956 14.4315Z" fill="#0F0F0F"/>
<path d="M51.9503 6.20991L52.3309 7.90087V22.6531H48.7883V6.20991H51.9503ZM53.5313 6.93878C54.0193 6.66667 54.6048 6.46258 55.288 6.32653C55.9711 6.17104 56.8982 6.09329 58.0693 6.09329V9.76676C57.5228 9.61127 56.8592 9.52381 56.0784 9.50437C55.649 9.50437 55.2099 9.54325 54.761 9.62099C54.3315 9.6793 53.9217 9.77648 53.5313 9.91254V6.93878Z" fill="#0F0F0F"/>
<path d="M65.0608 17.6676C65.0608 18.3285 65.1487 18.8435 65.3243 19.2128C65.5 19.5821 65.744 19.8639 66.0563 20.0583C66.3881 20.2527 66.7492 20.379 67.1395 20.4373C67.5494 20.4762 67.9788 20.4956 68.4278 20.4956V22.6531C68.174 22.6919 67.9203 22.7211 67.6665 22.7405C67.4518 22.76 67.1883 22.7697 66.8761 22.7697C66.5833 22.7891 66.2905 22.7988 65.9977 22.7988C65.7049 22.7988 65.4024 22.7891 65.0901 22.7697C64.7973 22.7502 64.5436 22.7211 64.3289 22.6822C63.6653 22.5656 63.148 22.2838 62.7772 21.8367C62.4063 21.3703 62.1233 20.8649 61.9281 20.3207C61.7525 19.757 61.6353 19.2128 61.5768 18.688C61.5378 18.1633 61.5182 17.7551 61.5182 17.4636V8.60058H59.3517V6.20991H61.5182V1.54519H65.0608V6.20991H67.6958V8.60058H65.0608V17.6676Z" fill="#0F0F0F"/>
<path d="M78.7569 6.06414C79.8109 6.16132 80.7576 6.44315 81.5969 6.90962C82.4557 7.37609 83.1876 7.97862 83.7927 8.7172C84.3978 9.45578 84.8564 10.3013 85.1687 11.2536C85.5006 12.206 85.6665 13.1973 85.6665 14.2274C85.6665 14.6939 85.6372 15.1603 85.5786 15.6268H75.5364V13.0612H82.2995C82.2995 12.5559 82.2117 12.07 82.036 11.6035C81.8799 11.137 81.6359 10.7094 81.3041 10.3207C80.9918 9.91254 80.6209 9.5724 80.1915 9.30029C79.7621 9.02818 79.2839 8.86297 78.7569 8.80466V6.06414ZM78.6398 19.9125C78.8545 19.9125 79.118 19.8931 79.4303 19.8542C79.7621 19.7959 80.1037 19.7085 80.455 19.5918C80.8259 19.4558 81.187 19.2906 81.5383 19.0962C81.9092 18.9018 82.2312 18.6686 82.5045 18.3965L83.7927 20.3499C83.1486 21.1467 82.3971 21.7493 81.5383 22.1574C80.6795 22.5656 79.5865 22.7697 78.2592 22.7697C77.1857 22.7697 76.1805 22.5559 75.2436 22.1283C74.3067 21.6812 73.5065 21.0787 72.8428 20.3207C72.1792 19.5627 71.6522 18.6783 71.2618 17.6676C70.8715 16.6569 70.6763 15.5685 70.6763 14.4023C70.6763 13.2945 70.852 12.2449 71.2033 11.2536C71.5741 10.2624 72.0719 9.39747 72.6964 8.65889C73.321 7.90087 74.0432 7.28863 74.863 6.82216C75.7023 6.35569 76.6001 6.09329 77.5565 6.03499V8.83382C76.8344 8.96987 76.2391 9.26142 75.7706 9.70846C75.3022 10.1555 74.9313 10.6706 74.6581 11.2536C74.4043 11.8173 74.2189 12.4004 74.1018 13.0029C74.0042 13.6054 73.9554 14.1205 73.9554 14.5481C73.9554 15.3061 74.0432 16.0155 74.2189 16.6764C74.4141 17.3178 74.7069 17.8814 75.0972 18.3673C75.4876 18.8338 75.9658 19.2128 76.5318 19.5044C77.1174 19.7765 77.82 19.9125 78.6398 19.9125Z" fill="#0F0F0F"/>
<path d="M92.1895 6.20991L92.5701 7.87172V22.6531H89.0275V6.20991H92.1895ZM101.324 8.01749C101.656 8.34791 101.91 8.73664 102.085 9.18367C102.281 9.61127 102.417 10.068 102.495 10.5539C102.593 11.0204 102.651 11.4966 102.671 11.9825C102.69 12.4684 102.7 12.9446 102.7 13.4111V22.6531H99.1283V13.7026C99.1283 13.0418 99.0991 12.4101 99.0405 11.8076C98.9819 11.2051 98.8453 10.6706 98.6306 10.2041C98.4159 9.73761 98.1231 9.37804 97.7523 9.12536C97.3814 8.85326 96.8642 8.7172 96.2006 8.7172C95.9273 8.7172 95.5565 8.76579 95.088 8.86297C94.6391 8.94072 94.1999 9.07677 93.7705 9.27114V7.02624C94.2975 6.75413 94.8636 6.52089 95.4686 6.32653C96.0932 6.13217 96.6983 6.03499 97.2838 6.03499C98.1622 6.03499 98.9039 6.21963 99.5089 6.58892C100.114 6.93878 100.719 7.41497 101.324 8.01749Z" fill="#0F0F0F"/>
<path d="M109.604 17.6385C109.604 18.2993 109.692 18.8241 109.867 19.2128C110.043 19.5821 110.287 19.8639 110.599 20.0583C110.912 20.2332 111.263 20.3499 111.653 20.4082C112.063 20.4665 112.502 20.4956 112.971 20.4956V22.6531C112.717 22.6919 112.454 22.7211 112.18 22.7405C111.966 22.76 111.712 22.7697 111.419 22.7697C111.126 22.7891 110.834 22.7988 110.541 22.7988C110.248 22.7988 109.955 22.7891 109.662 22.7697C109.37 22.7502 109.106 22.7211 108.872 22.6822C108.208 22.5462 107.691 22.2546 107.32 21.8076C106.949 21.3605 106.666 20.8649 106.471 20.3207C106.276 19.757 106.149 19.2128 106.091 18.688C106.052 18.1633 106.032 17.7551 106.032 17.4636V0H109.604V17.6385Z" fill="#0F0F0F"/>
<path d="M131 6.20991C129.926 9.06706 128.97 11.6035 128.131 13.8192C127.291 16.0155 126.56 17.9495 125.935 19.621C125.31 21.2731 124.754 22.6725 124.266 23.8192C123.798 24.966 123.359 25.9184 122.949 26.6764C122.558 27.4538 122.187 28.0564 121.836 28.484C121.485 28.931 121.124 29.2711 120.753 29.5044C120.382 29.7376 119.972 29.8737 119.523 29.9125C119.094 29.9708 118.596 30 118.03 30C117.854 30 117.649 29.9708 117.415 29.9125C117.181 29.8737 116.947 29.8154 116.713 29.7376C116.498 29.6793 116.303 29.6113 116.127 29.5335C115.951 29.4752 115.834 29.4363 115.776 29.4169C115.854 29.0671 115.932 28.7366 116.01 28.4257C116.068 28.1535 116.127 27.8912 116.186 27.6385C116.264 27.4052 116.322 27.24 116.361 27.1429C116.517 27.1429 116.752 27.1914 117.064 27.2886C117.396 27.3858 117.64 27.4344 117.796 27.4344C118.108 27.4344 118.381 27.415 118.616 27.3761C118.869 27.3567 119.094 27.2692 119.289 27.1137C119.484 26.9776 119.67 26.7638 119.845 26.4723C120.021 26.2002 120.216 25.8017 120.431 25.277L121.543 22.6531L127.428 6.20991H131ZM120.928 21.1079L114.78 6.20991H118.323L122.539 17.2595L122.129 18.2507L120.928 21.1079Z" fill="#0F0F0F"/>
</svg>
